<svg xmlns="http://www.w3.org/2000/svg" version="1.1" width="1000"
     height="1000">
    <g clip-path="url(#SvgjsClipPath1119)">
        <rect width="1000" height="1000" fill="#ffffff"></rect>
        <g transform="matrix(6.451612903225806,0,0,6.451612903225806,100,306.45161290322585)">
            <svg xmlns="http://www.w3.org/2000/svg" version="1.1" width="124"
                 height="60">
                <svg xmlns="http://www.w3.org/2000/svg" width="124" height="60" viewBox="0 0 124 60">
                    <g fill="none" fill-rule="evenodd">
                        <path fill="#b40000"
                              d="M123.682 49.824 114.775.884a1.077 1.077 0 0 0-1.252-.866L64.58 8.924a1.077 1.077 0 0 0-.867 1.252L66.8 27.139l-8.556 8.764c-.36.369-.274.845.193 1.064l11.096 5.188 3.087 16.96c.106.586.667.974 1.252.867l48.943-8.906c.585-.106.973-.667.867-1.252"></path>
                        <path fill="#fff" fill-rule="nonzero"
                              d="M69.653 14.947h3.716l1.557 10.691 2.034-10.691h5.025l2.034 10.691 1.557-10.691h3.281l-2.616 14.324h-4.879l-2.056-10.795-2.055 10.795h-4.983zm20.242 0h10.069v2.968h-6.145v2.575h5.543v2.968h-5.543v2.844h6.187v2.969H89.895zm19.577 11.605.519-.52v-2.22l-.477-.499h-3.717v3.239zm0-5.917.477-.478v-1.993l-.498-.519h-3.654v2.99zm-7.62-5.688h10.049l1.993 1.993v3.384l-1.64 1.619 1.682 1.681v3.654l-1.993 1.993h-10.09zM83.163 42.82l.706-.705v-7.142l-.706-.706h-3.529v8.553zM75.71 31.382h9.882l2.222 2.2v9.923l-2.222 2.201H75.71zm13.971-.001H99.75v2.969h-6.145v2.574h5.543v2.969h-5.543v2.844h6.187v2.969H89.681zm11.294 0h4.09l2.326 11.439 2.325-11.439h3.758l-3.301 14.325h-5.917z"></path>
                        <path fill="#131313"
                              d="M16.405 28.817c-1.746 0-2.91-1.164-2.91-4.13 0-3.025 1.164-4.014 2.91-4.014 1.745 0 2.85.989 2.85 4.014 0 2.966-1.105 4.13-2.85 4.13m2.85 16.81c1.862 0 2.502.466 2.502 1.57 0 1.804-3.026 2.328-6.458 2.328-4.13 0-5.003-.64-5.003-3.083 0-.175 0-.466.059-.815zm39.383-21.231h1.267l1.754.409-1.72-9.617-.021.295v-.51c-.873-.291-1.338-.35-1.862-.35-3.897 0-5.991 1.92-7.911 4.538-.29-3.316-1.105-4.189-2.269-4.189H21.873a27.4 27.4 0 0 0-5.585-.581c-8.9 0-14.136 3.78-14.136 10.237 0 3.607 1.571 6.283 4.538 7.911-2.21 1.338-3.781 3.141-3.781 5.875 0 2.094 1.163 3.549 2.676 4.363C3.025 43.707 0 45.686 0 49.176c0 4.42 3.781 7.038 15.241 7.038 12.507 0 17.568-4.712 17.568-11.692 0-5.642-2.908-8.085-9.598-8.085H12.623c-1.57 0-1.861-.757-1.861-1.978v-.407c1.629.349 3.49.523 5.526.523 8.959 0 14.136-3.49 14.136-9.947 0-.407-.058-.814-.058-1.221.233-.407.756-.815 1.163-.815h4.655c.581 0 1.454.931 1.454 1.455v13.03c0 .581-.873 1.454-1.454 1.454h-1.455v7.155h18.79V38.53h-3.2V25.326c1.687-.465 4.363-.93 8.32-.93"></path>
                    </g>
                </svg>
            </svg>
        </g>
    </g>
    <defs>
        <clipPath id="SvgjsClipPath1119">
            <rect width="1000" height="1000" x="0" y="0" rx="500" ry="500"></rect>
        </clipPath>
    </defs>
</svg>
