<svg width="137" height="29" viewBox="0 0 137 29" fill="none" xmlns="http://www.w3.org/2000/svg">
<path d="M29.5675 3.62085L25.9722 3.62085L17.877 22.1509H21.8087L23.4681 18.2416H31.967L33.6338 22.1509H37.6702L29.575 3.62085H29.5675ZM24.9631 14.7135L27.7063 8.24775L30.457 14.7135H24.9631Z" fill="#15120D"/>
<path d="M39.4639 0.0930176L55.886 0.0930176V3.62112L43.3433 3.62112V9.63834L54.4733 9.63834V13.1664L43.3433 13.1664V22.1512H39.4639V0.0930176Z" fill="#15120D"/>
<path d="M0.429688 0.0930176L4.30911 0.0930176L4.30911 18.6231L16.8518 18.6231V22.1512L0.429688 22.1512L0.429688 0.0930176Z" fill="#15120D"/>
<path d="M57.7539 22.1584L72.7708 22.1584V18.6228H61.6259V3.62085L57.7539 3.62085V22.1584Z" fill="#15120D"/>
<path d="M108.013 3.62085V12.7924C108.013 16.8587 105.897 18.9367 102.466 18.9367C99.0354 18.9367 96.8902 16.7616 96.8902 12.6355V3.62085L93.0107 3.62085V12.7924C93.0107 19.1909 96.6958 22.5022 102.407 22.5022C108.117 22.5022 111.892 19.1909 111.892 12.6056V3.62085L108.013 3.62085Z" fill="#15120D"/>
<path d="M84.1014 7.15643L91.1502 7.15643V3.62085L84.1014 3.62085L78.159 3.62085L74.6309 3.62085V22.1584H78.159L91.1502 22.1584V18.6228H78.159V14.6537L87.6146 14.6537V11.1256L78.159 11.1256V7.15643L84.1014 7.15643Z" fill="#15120D"/>
<path d="M126.529 17.336C129.616 16.5138 131.792 14.2489 131.792 10.6535V10.5937C131.792 8.67269 131.134 7.06561 129.96 5.83226C128.54 4.44195 126.365 3.6272 123.592 3.6272L113.755 3.6272V22.1572H117.634V17.9938H122.493L130.289 28.907H134.826L126.529 17.3285V17.336ZM117.642 14.5628V7.1553L123.285 7.1553C126.185 7.1553 127.852 8.41855 127.852 10.8105V10.8703C127.852 13.1426 126.088 14.5554 123.315 14.5554L117.642 14.5554V14.5628Z" fill="#15120D"/>
<path d="M136.43 4.95763C136.43 6.08633 135.548 6.96835 134.397 6.96835C133.246 6.96835 132.349 6.08633 132.349 4.95763C132.349 3.82893 133.253 2.97681 134.397 2.97681C135.54 2.97681 136.43 3.85883 136.43 4.95763ZM132.864 4.95763C132.864 5.83966 133.515 6.54229 134.412 6.54229C135.309 6.54229 135.922 5.83966 135.922 4.97258C135.922 4.1055 135.279 3.37297 134.397 3.37297C133.515 3.37297 132.864 4.08308 132.864 4.95763ZM134.083 5.99663H133.627V4.0158C133.806 3.97843 134.06 3.95601 134.389 3.95601C134.763 3.95601 134.935 4.0158 135.077 4.09803C135.189 4.18025 135.271 4.33722 135.271 4.53157C135.271 4.74834 135.099 4.92026 134.86 4.98753V5.00995C135.055 5.0847 135.167 5.22672 135.226 5.49582C135.286 5.79481 135.324 5.92188 135.368 5.98915H134.875C134.815 5.9144 134.778 5.73501 134.718 5.50329C134.681 5.28652 134.561 5.18935 134.307 5.18935H134.09V5.98915L134.083 5.99663ZM134.098 4.86793H134.315C134.569 4.86793 134.77 4.78571 134.77 4.57641C134.77 4.39702 134.636 4.27742 134.344 4.27742C134.225 4.27742 134.135 4.29237 134.09 4.29985V4.86793H134.098Z" fill="#15120D"/>
</svg>
