<?xml version="1.0" encoding="UTF-8"?>
<!-- Generator: Adobe Illustrator 28.1.0, SVG Export Plug-In . SVG Version: 6.00 Build 0)  -->
<svg xmlns="http://www.w3.org/2000/svg" xmlns:xlink="http://www.w3.org/1999/xlink" version="1.1" id="Layer_1" x="0px" y="0px" viewBox="0 0 137.5 50" style="enable-background:new 0 0 137.5 50;" xml:space="preserve">
<path d="M137.5,25l-25,25H0V0h112.5L137.5,25z M39.9,32c0,1-0.6,1.5-1.7,1.5h-3v-3h3C39.3,30.5,39.9,31,39.9,32z M48.1,30.5h-1.2  v7.1H48c2.4,0,3.5-1.4,3.5-3.5C51.6,31.7,50.6,30.5,48.1,30.5z M48.5,14c0-1-0.6-1.5-1.7-1.5h-3v3h3C48,15.5,48.5,15,48.5,14z   M34.1,13.1c-0.1,0.4-0.3,1.1-0.6,1.8L32.8,17h2.6l-0.7-2.1C34.5,14.2,34.2,13.6,34.1,13.1z M25.5,31.2c-0.1,0.4-0.3,1.1-0.6,1.8  l-0.7,2.1h2.6L26,33C25.8,32.3,25.6,31.6,25.5,31.2z M15.9,18.5c0,0.9-0.6,1.3-2,1.3c-1.1,0-2.1-0.4-3-1.3l-1.7,1.5  c0.9,1.3,2.6,2.1,4.5,2.1c3.2,0,4.5-1.5,4.5-3.7c0-2.5-2-3.1-3.9-3.6c-1.8-0.4-2.3-0.7-2.3-1.4c0-0.5,0.4-1,1.7-1  c1.1,0,1.9,0.4,2.6,1.2l1.7-1.6c-1.1-1.1-2.4-1.8-4.2-1.8c-2.3,0-4.1,1.3-4.1,3.4c0,2.3,1.5,3,3.6,3.5  C15.5,17.4,15.9,17.7,15.9,18.5z M18.9,33.9h-4.1V36h1.8c-0.1,1-0.7,1.8-2.3,1.8c-1.7,0-2.7-1.6-2.7-3.7c0-2.1,1-3.7,2.7-3.7  c1.3,0,1.8,0.6,2.2,1.5l2.2-0.9c-0.8-1.8-2-2.9-4.4-2.9c-3,0-5.1,2.4-5.1,6c0,3.6,2,6,5.1,6c2.7,0,4.6-1.7,4.6-4.7V33.9z M19.9,12.5  h3.3v9.3h2.3v-9.3h3.3v-2.3h-8.9V12.5z M31,39.8l-4.4-11.6h-2.2L20,39.8h2.5l0.9-2.6h4.2l0.9,2.6H31z M32,19.2h4.2l0.9,2.6h2.5  l-4.4-11.6H33l-4.4,11.6h2.5L32,19.2z M40.1,35.4c1.5-0.6,2.2-1.7,2.2-3.4c0-2.5-1.8-3.7-4-3.7h-5.4v11.6h2.3v-4.2h2.3l2.1,4.2h2.7  L40.1,35.4z M43.9,17.6h2.3l2.1,4.2h2.7l-2.2-4.5c1.5-0.6,2.2-1.7,2.2-3.4c0-2.5-1.8-3.7-4-3.7h-5.4v11.6h2.3V17.6z M53.9,34.1  c0-4.2-2.4-5.8-5.7-5.8h-3.6v11.6H48C51,39.8,53.9,38.1,53.9,34.1z M55.8,12.5v9.3h2.3v-9.3h3.3v-2.3h-8.9v2.3H55.8z M64.4,37.6h-6  v-2.8h3.3v-2.2h-3.3v-2h5.7v-2.3h-8v11.6h8.3V37.6z M76,28.3h-2.3v4.9c0,0.6,0,2.1,0,2.5c-0.1-0.3-0.5-0.9-0.8-1.3l-4.1-6.1h-2.2  v11.6H69v-5.1c0-0.6,0-2.1,0-2.5c0.1,0.3,0.5,0.9,0.8,1.3l4.2,6.3H76V28.3z"></path>
</svg>
