<?xml version="1.0" encoding="UTF-8" standalone="no"?><!DOCTYPE svg PUBLIC "-//W3C//DTD SVG 1.1//EN"
        "http://www.w3.org/Graphics/SVG/1.1/DTD/svg11.dtd">
<svg width="100%" viewBox="0 0 26 25" version="1.1" xmlns="http://www.w3.org/2000/svg"
     xml:space="preserve"
     style="fill-rule:evenodd;clip-rule:evenodd;stroke-linejoin:round;stroke-miterlimit:2;"><path d="M4.866,2.73c3.644,-1.502 10.329,-3.227 15.045,-1.886c2.426,0.69 4.627,3.299 5.049,6.08c0.35,2.304 -0.544,4.938 -1.779,6.271c-0.091,0.098 -0.139,0.227 -0.13,0.36c0.003,0.047 0.014,0.095 0.031,0.138c1.706,4.387 -0.971,6.505 -4.021,7.1c-3.123,0.609 -6.173,1.655 -9.106,2.877l-0,0l-0,0c-3.006,1.255 -7.313,-0.04 -8.768,-3.262c-0.822,-1.822 -0.241,-4.472 0.422,-6.349c0.081,-0.228 0.034,-0.481 -0.113,-0.673c-0.546,-0.713 -0.975,-1.56 -1.242,-2.515c-1.049,-3.754 1.283,-6.769 4.612,-8.141Zm10.725,4.977c-0.864,-0.955 -2.391,-1.108 -3.547,-0.038c-0.224,0.207 -0.635,0.159 -0.85,-0.058c-0.691,-0.697 -1.956,-0.844 -3.018,-0.417c-0.878,0.352 -1.584,1.16 -2.009,2.399c0,0 -0.77,2.965 -1.429,4.769c-1.043,3.09 3.515,3.98 4.412,1.084l1.293,-4.537c0.204,-0.658 0.513,-1.224 1.134,-1.066c0.621,0.158 0.654,0.795 0.409,1.481l-0.605,2.503c-0.553,1.999 2.258,2.539 2.853,0.707l0.971,-3.625c0.193,-0.697 0.541,-1.106 1.044,-1.001c0.503,0.105 0.656,0.536 0.457,1.232l-0.535,2.112c-0.352,1.215 -0.034,2.224 1.19,2.421c1.335,0.214 2.173,-0.347 2.459,-0.584c0.075,-0.062 0.119,-0.151 0.135,-0.247c0.032,-0.19 -0.115,-0.36 -0.307,-0.366c-0.506,-0.014 -0.815,-0.091 -0.927,-0.417c-0.086,-0.249 -0.116,-0.518 0.039,-1.06c0.134,-0.471 0.475,-1.695 0.725,-2.593c0.279,-1.003 0.666,-2.149 -0.261,-2.942c-0.779,-0.666 -1.991,-0.475 -2.938,0.307c-0.202,0.167 -0.518,0.131 -0.694,-0.063Z" style="fill:#ff4a79;fill-rule:nonzero;"/>
    <path d="M17.135,24.44c3.786,-0.098 4.812,-2.415 3.931,-2.587c-2.405,-0.472 -12.474,2.809 -3.931,2.587Z"
          style="fill:#ff4a79;fill-rule:nonzero;"/>
    <path d="M4.111,0.042c-2.606,0.203 -3.411,2.783 -2.783,2.783c1.669,0 8.479,-3.226 2.783,-2.783Z"
          style="fill:#ff4a79;fill-rule:nonzero;"/></svg>
