<svg xmlns="http://www.w3.org/2000/svg" xml:space="preserve" viewBox="0 0 5286 5286"><path fill="#FFF" d="M2324 5292H4V4h5288v5288H2324m2385.765-2691.785c-11.59-64.202-23.079-128.423-34.796-192.602-19.371-106.102-39-212.158-58.316-318.27-19.316-106.117-38.314-212.291-57.575-318.417-19.856-109.401-39.865-218.774-59.8-328.16-2.745-15.066-5.084-30.219-8.336-45.173-1.531-7.038-3.52-14.572-7.505-20.365-10.067-14.64-24.533-19.067-42.062-15.752-47.737 9.026-95.555 17.628-143.352 26.334-62.206 11.33-124.426 22.58-186.634 33.902-62.862 11.44-125.71 22.954-188.575 34.382-54.349 9.88-108.722 19.626-163.065 29.535-62.2 11.343-124.366 22.874-186.57 34.187-62.213 11.314-124.471 22.377-186.681 33.701-69.41 12.635-138.776 25.513-208.185 38.148-62.21 11.325-124.46 22.416-186.678 33.697a154854.638 154854.638 0 0 0-214.112 38.999c-18.986 3.47-38.042 6.67-56.867 10.884-24.029 5.379-35.263 23.08-31.106 47.429.223 1.31.712 2.574.95 3.883 13.626 74.668 27.255 149.335 40.847 224.009 19.913 109.393 39.822 218.787 59.665 328.192 2.36 13.016 4.298 26.109 6.254 38.076-2.342 2.952-3.444 4.626-4.818 6.033a715841.949 715841.949 0 0 1-183.12 187.229c-32.152 32.866-64.335 65.7-96.441 98.611-6.511 6.674-13.277 13.207-18.971 20.544-9.153 11.794-6.91 24.261 5.506 32.71 4.349 2.96 9.443 4.848 14.254 7.102 121.705 57.01 243.42 113.998 365.119 171.022 5.351 2.507 10.556 5.329 15.626 7.901l17.693 97.235c12.633 69.434 25.263 138.868 37.9 208.302 14.067 77.294 28.12 154.59 42.225 231.878 3.706 20.306 7.036 40.703 11.532 60.836 4.375 19.594 19.458 30.505 39.272 29.86 3.319-.107 6.66-.49 9.927-1.094 45.818-8.458 91.606-17.081 137.44-25.455 61.543-11.243 123.125-22.27 184.679-33.454 55.661-10.113 111.3-20.353 166.963-30.46 55.007-9.987 110.043-19.824 165.048-29.825 54.35-9.883 108.673-19.92 163.018-29.835 62.205-11.35 124.419-22.65 186.632-33.957 55.005-9.997 110.021-19.94 165.021-29.966 54.35-9.906 108.673-19.95 163.03-29.816 62.212-11.294 124.457-22.413 186.672-33.693 63.523-11.518 126.876-24.075 190.597-34.349 35.984-5.8 46.366-28.65 40.29-57.59-9.984-47.552-17.778-95.563-26.501-143.38-12.666-69.428-25.382-138.848-37.988-208.287-9.158-50.446-18.17-100.918-28.106-154.72m-3256.224 631.402c1.613-1.173 3.231-2.337 4.837-3.519 72.447-53.293 117.407-123.86 134.735-212.305 8.798-44.904 9.16-90.02 5.6-135.249-1.88-23.88-6.792-47.4-14.313-70.308-19.31-58.821-56.707-101.67-112.589-128.33-20.495-9.777-41.95-16.826-63.99-22.18-45.572-11.072-92.036-14.779-138.688-15.064-94.65-.58-189.308-.173-283.963-.173-32.662 0-65.325-.082-97.987.04-10.752.041-21.329-.799-31.454-4.59-10.303-3.857-18.844-10.03-23.696-20.237-8.504-17.891-9.285-36.64-6.896-56.786 7.176 1.22 13.035 2.36 18.938 3.198 23.063 3.276 46.064 7.249 69.23 9.503 43.112 4.194 86.358 5.29 129.708 4.43 59.446-1.18 118.304-6.913 176.328-20.04 48.917-11.068 95.953-27.329 139.673-52.337 38.032-21.754 71.23-49.194 97.725-84.264 39.07-51.714 57.215-110.707 59.48-174.926.562-15.962.631-32.06-.81-47.938-1.24-13.66 4.141-22.828 14.162-30.819 9.75-7.774 20.472-12.048 33.034-12.025 49.994.091 99.988.1 149.981-.007 12.657-.027 23.279 4.582 32.732 12.667 17.084 14.611 25.976 31.895 25.854 55.568-.732 141.978-.363 283.961-.363 425.943 0 2.667.066 5.335-.013 8-.955 32.014-28.45 58.815-60.782 59.189-9.998.115-20-.083-29.995.084-3.749.063-7.487.757-11.589 1.201-.32 3.863-.722 6.436-.72 9.009.099 79.314.235 158.63.39 237.944 0 .619.206 1.314.535 1.834.344.543.954.917 2.956 2.735 215.668 0 432.848.004 650.027-.052 2.49 0 4.98-.78 7.183-1.148 2.946-19.264 3.9-138.587 1.97-238.394-.074-3.849-.79-7.686-1.31-12.462-6.668-.265-12.547-.685-18.426-.701-26.664-.075-53.327.037-79.99-.121-3.723-.022-7.439-1.172-12.177-1.97 0-152.156-.007-303.413.057-454.67.001-2.537.864-5.074 1.417-8.12 2.835-.892 5.255-1.77 7.735-2.414 62.137-16.133 125.538-24.068 189.454-27.455 39.88-2.113 79.888-1.73 119.833-2.69 12.78-.306 25.164 1.342 37.524 4.54 13.23 3.423 26.667 6.038 42.693 9.602-9.728-59.99-20.804-117.342-30.76-174.868-9.975-57.636-20.81-115.123-31.169-172.126-27.871-11.005-55.3-13.824-83.631-12.474-71.132 3.39-133.719 27.269-186.89 75.197-23.876 21.52-44.592 45.773-64.185 71.108-2.117 2.738-4.97 4.906-8.522 8.346-.75-4.602-1.148-7.217-1.606-9.822-3.569-20.3-6.648-40.704-10.892-60.863-3.159-15.006-8.686-29.382-16.806-42.533-11.71-18.963-28.349-29.539-51.133-29.293-4.666.05-9.332.007-13.998.007-294.63 0-589.259.01-883.888-.052-8.642-.002-17.538.416-25.882-1.377-43.083-9.259-86.716-14.274-130.57-17.3-47.24-3.261-94.473-2.386-141.711 1.478-53.287 4.358-105.722 13.107-156.701 29.227-58.333 18.445-112.234 45.232-157.99 86.846-40.34 36.69-69.091 80.725-85.557 132.715-18.279 57.714-20.497 116.588-10.708 175.872 7.815 47.334 25.738 90.769 55.106 129.147 23.385 30.562 52.097 55.027 84.74 75.144 3.71 2.286 9.049 3.089 10.249 9.7-5.131 3.459-10.742 6.842-15.912 10.803-12.679 9.714-25.701 19.078-37.617 29.672-53.088 47.2-78.646 106.196-74.7 177.514 2.223 40.17 16.774 75.275 44.715 104.138 10.561 10.91 23.474 19.533 35.208 29.325 2.875 2.398 7.784 2.998 7.784 9.002-4.522 1.868-9.327 3.798-14.09 5.827-37.583 16.012-72.873 35.781-103.531 63.155-52.544 46.913-78.542 104.845-72.55 175.826 3.58 42.393 18.14 80.207 47.507 111.82 23.087 24.855 51.018 42.55 81.539 56.512 51.33 23.482 105.9 35.45 161.255 44.078 65.914 10.273 132.465 13.727 199.033 15.316 61.933 1.479 123.833-.253 185.625-6.093 50.502-4.773 100.455-12.29 149.615-24.699 64.98-16.4 126.777-40.33 184.583-80.468m2431.785 448.806c-33.3.131-66.601.26-99.901.411-.64.003-1.359.134-1.894.451-.549.324-.918.952-1.632 1.742-.332.777-1.267 1.946-1.269 3.116-.076 64.61-.077 129.219-.047 193.828 0 .578.442 1.192.78 1.725.354.558.832 1.038 2.354 2.886 5.442 0 12.025.231 18.584-.066 6.42-.29 13.193 1.668 19.674-2.141 2.616-13.796-1.113-27.918 2.646-42.258 12.718-1.583 24.679-.074 36.458-1.089 10.827-.932 17.211 3.973 22.996 12.376 18.874 27.416 38.192 54.527 57.502 81.64 4.226 5.934 8.752 11.75 13.815 16.967 5.712 5.884 13.116 9.184 21.368 9.665 5.29.307 10.631-.211 15.945-.452 5.055-.229 10.278.54 17.03-1.596-3.434-5.744-5.745-10.298-8.677-14.41-23.582-33.069-47.329-66.021-70.873-99.117-2.48-3.487-6.944-6.38-5.457-11.851.596-.529 1.027-1.084 1.593-1.38 1.754-.919 3.526-1.82 5.352-2.581 27.698-11.543 43.47-31.865 46.01-62.09 3.765-44.78-19.278-68.767-47.457-78.49-13.335-4.6-27.05-6.87-44.9-7.286m-471.439 82.502-21.943-.838c-1.587-14.444-1.266-27.419-.366-41.74 16.468-.7 31.668-.28 46.845-.353 15.322-.074 30.644.076 45.965-.043 15.158-.119 30.356.551 46.697-.522.258-7.108.678-12.935.622-18.758-.056-5.79-.591-11.577-.9-17.074-17.83-2.884-161.882-2.863-178.12-.18-.56 1.166-1.607 2.33-1.61 3.499a81373.7 81373.7 0 0 0-.351 187.838c-.002 2.583.747 5.168 1.16 7.839 2.329.504 4.218 1.269 6.108 1.271 55.291.066 110.583.082 165.874-.032 2.421-.004 4.84-1.301 7.427-2.044.354-12.52 1.45-24.27-.805-37.29-23.69-.18-46.222.097-68.747-.138-23.12-.24-46.291 1.009-69.964-.944v-39.276c33.66-2.513 66.742.66 100.255-1.79 2.172-13.23 1.391-25.536.87-36.679-2.03-1.564-2.546-2.311-3.069-2.315-23.975-.185-47.952-.304-75.948-.431m-301.795-15.976c-32.622-.076-65.244-.137-97.866-.289-1.243-.006-2.483-.896-3.723-1.378-2.783-14.717-2.918-43.681-.021-62.75 14.013-1.36 28.517-.55 42.957-.674 15.312-.13 30.632.239 45.937-.107 14.527-.328 29.168 1.574 45.03-1.62 0-6.163.23-12.084-.062-17.979-.317-6.409 1.657-13.172-1.95-19.297-2.425-.506-4.331-1.25-6.238-1.252-53.93-.07-107.858-.1-161.787.017-3.097.006-6.19 1.31-10.114 2.197 0 5.97-.007 11.257 0 16.544.101 73.232.202 146.466.34 219.699.001.571.476 1.176.822 1.704.364.553.84 1.031 1.775 2.152 12.562 1.133 25.603.937 39.847.05 1.27-11.592.553-22.14.678-32.624.127-10.651-.102-21.307.065-31.957.165-10.521-.814-21.123 1.026-32.716 7.19-.3 13.667-.784 20.144-.803 29.295-.086 58.59.002 87.884-.092 3.767-.013 7.53-.719 12.493-1.226 0-7.079.105-12.984-.03-18.883-.132-5.803-.509-11.6-.84-18.716h-16.367m560.45 140.736c6.535-1.2 13.192-1.949 19.584-3.678 28.187-7.623 48.092-24.955 58.877-52.138 5.93-14.943 8.79-30.627 8.764-46.788-.05-30.61.022-61.221-.07-91.832-.011-3.79-.71-7.576-1.188-12.337-14.681.127-28.28-2.814-42.262 2.072 0 8.694.048 16.658-.01 24.622-.201 27.94-.03 55.892-.776 83.818-.78 29.2-15.926 49.121-42.825 55.17-39.547 8.892-65.87-9.677-74.448-44.282-1.894-7.64-2.254-15.797-2.33-23.725-.268-27.947-.033-55.898-.182-83.845-.024-4.404-1.051-8.803-1.733-14.132-14.165-.071-27.217-.68-40.955.297-.576 3.66-1.316 6.154-1.308 8.646.083 26.612-.05 53.231.583 79.831.363 15.245.817 30.663 3.338 45.647 6.241 37.092 30.768 61.276 67.664 69.647 15.15 3.437 30.351 3.299 49.277 3.007m-866.241-183.98c-25.937 59.649-52.501 119.03-78.756 180.877 8.785 0 15.365.042 21.945-.011 7.224-.057 14.447-.2 22.194-.315l17.735-39.67c3.326-1.108 5.202-2.265 7.09-2.282a9711.58 9711.58 0 0 1 73.91-.368c8.209-.013 13.264 4.141 16.783 11.649 4.73 10.095 6.924 21.549 15.656 30.997 6.154 0 12.78.256 19.377-.07 7.015-.345 14.309 1.466 21.417-1.554-.463-2.716-.416-4.79-1.168-6.517-27.076-62.194-54.19-124.371-81.46-186.48-1.513-3.448-4.378-6.303-6.153-8.788h-38.029c-3.16 6.681-6.247 13.204-10.541 22.533m-270.054 157.738c.753 7.058-1.62 14.49 2.007 21.652 3.035.316 5.604.82 8.173.816 55.232-.075 110.465-.205 165.698-.365.566-.002 1.163-.507 1.688-.863.548-.37 1.026-.845 2.564-2.143 0-8.368.08-17.62-.054-26.867-.036-2.507-.72-5.003-1.273-8.58-6.387-.24-12.236-.639-18.087-.65-35.273-.062-70.546.023-105.818-.127-3.69-.015-7.374-1.242-11.74-2.03 0-65.552.002-130.078-.023-194.604 0-.639-.246-1.338-.57-1.898-.294-.509-.852-.865-2.269-2.224-12.547-.3-26.143-2.444-40.296 1.487v216.396m757.534 22.544c11.791-.407 23.691.93 36.665-1.09.128-13.362 2.433-25.631-2.12-38.505h-20.461c-29.33-.003-58.66.068-87.987-.102-3.675-.021-7.342-1.316-11.44-2.103 0-27.755.216-54.383-.061-81.005-.275-26.418 1.258-52.901-1.064-80.42-14.266-.41-27.252-.993-40.841.478-.574 3.623-1.323 6.153-1.325 8.683-.058 61.991-.061 123.982.06 185.973.004 2.443 1.323 4.884 2.25 8.091h126.324m-1766.786-88.79-14.742-57.97c-9.986-.694-18.864-2.284-28.42 1.283l29.557 104.72c12.193 1.13 23.266 1.334 34.231-.006 8.093-13.708 9.18-29.625 18.32-42.429 7.863 14.04 9.693 29.735 18.416 43.594 11.204-1.672 22.438 1.676 33.778-2.415 9.199-33.026 18.302-65.644 27.326-98.285.492-1.776.32-3.736.522-6.483h-26.303c-9.21 21.991-9.865 46.405-20.627 70.326-11.722-24.217-15.326-48.69-25.286-70.323h-17.07c-7.644 22.622-15.048 44.616-22.613 66.556-.255.739-2.125.92-4.311 1.785-.693-2.403-1.355-4.7-2.778-10.353m-260.05 70.964c0-4.654-.125-9.314.035-13.963.17-4.908-.79-10.083 1.096-14.006 10.372 2.757 19.083 6.221 28.068 7.226 19.443 2.176 35.558-7.866 42.3-26.222 6.33-17.24 7.698-34.991 1.544-52.783-7.137-20.635-23.735-31.77-45.671-31.609-10.407.077-18.901 4.996-27.435 9.582-7.21-12.192-17.353-7.315-26.52-7.253-2.56 18.536-2.31 142.681.302 158.054 8.285 1.002 16.624 1.844 25.77-.939.18-8.616.346-16.503.51-28.087m818.612-22.225c3.396-.084 6.733-.375 7.411-4.651.31-1.955.338-3.97.338-5.958.001-45.864.005-91.727-.104-137.591-.006-2.384-1.009-4.764-1.683-7.744-8.584.235-16.338-1.54-23.937 1.506-2.719 17.576 1.355 34.89-2.74 52.922-4.565-1.8-8.077-3.36-11.702-4.59-28.331-9.604-54.13 4.628-61.569 33.416-3.264 12.632-2.465 24.976.036 37.482 6.196 30.985 32.282 45.035 61.694 33.067 4.199-1.709 8.176-3.964 12.056-5.868 6.135 7.308 6.135 7.308 20.2 8.009m188.962-24.52c1.44-5.79 3.228-11.52 4.25-17.384 2.087-11.972 1.239-23.815-2.706-35.377-9.188-26.933-36.126-38.913-62.61-27.79-2.883 1.212-5.641 2.723-9.409 4.558-2.822-18.918.855-36.836-2.57-54.852h-24.962c-.355 3.845-.899 7.006-.902 10.167-.05 45.158-.062 90.316.054 135.474.007 3.093 1.095 6.182 1.695 9.349h20.342l6.504-7.637c3.122 1.65 5.384 2.97 7.747 4.074 25.68 12.001 45.203 6.3 62.567-20.582m50.71 73.941c12.04-6.279 18.008-17.444 22.905-29.21 16.097-38.683 31.992-77.45 47.846-116.234 1.333-3.26 1.78-6.883 2.9-11.387-10.856.322-20.098-1.694-28.815 1.426-9.404 20.106-14.487 41.388-26.37 64.544-9.1-23.633-14.257-44.65-22.275-65.205-9.362-1.11-18.228-2.027-27.792.688 1.53 5.351 2.605 9.861 4.103 14.226 8.856 25.789 17.06 51.84 27.062 77.18 4.714 11.94 3.032 21.861-2.29 32.335-3.643 7.168-8.898 11.234-17.421 10.755-3.666-.206-7.408.962-10.974 1.486v21.882c10.136.816 19.216 1.806 31.122-2.486m-383.859-91.517c8.409-.677 17.129 1.774 25.591-2.202 1.24-9.514 1.439-18.714-.7-27.87-5.17-22.135-19.07-34.362-41.566-36.354a80.798 80.798 0 0 0-13.9-.045c-18.312 1.556-30.999 11.111-37.598 28.128-6.748 17.397-6.993 35.143.13 52.488 4.677 11.383 12.547 20.114 24.196 25.181 15.896 6.914 43.752 6.078 61.928-2.363v-19.44c-12.743.364-24.545.68-36.346 1.045-7.582.234-14.772-1.42-20.243-6.684-2.32-2.233-2.82-6.358-4.559-10.634 14.145-2.26 26.75-.797 43.067-1.25m-197.527-55.875c-12.213-9.665-26.286-12.123-41.359-10.617-17.414 1.74-29.86 10.466-36.61 26.703-7.493 18.025-7.92 36.406-.304 54.357 6.654 15.682 18.596 25.333 35.867 28.295 12.717 2.181 25.212.576 37.718-.948 4.324-.527 8.443-2.75 12.668-4.201.536-7.566 1.631-13.983-.816-20.237-12.922.377-24.79.725-36.657 1.068-6.886.2-13.455-1.332-18.557-5.923-2.59-2.33-3.747-6.251-6.71-11.511 13.138-1.752 24.306-.734 35.377-1.146 11.197-.416 22.52 1.326 34.176-1.44 2.854-19.441 1.072-37.279-14.793-54.4m-295.212-.951c-3.482-1.898-6.821-4.141-10.468-5.638-32.66-13.398-66.177 4.516-72.887 39.06-2.74 14.107-.751 27.773 5.857 40.576 9.941 19.263 26.787 27.184 47.5 26.65 20.753-.538 36.939-9.42 45.682-29.38 10.43-23.809 5.478-49.798-15.684-71.268m336.383 17.667c.116 25.326.21 50.652.421 75.978.01 1.17 1.07 2.331 1.643 3.496 13.621 2.154 13.621 2.154 25.398-1.284 0-16.299-.151-32.906.038-49.51.235-20.644 7.802-28.646 28.501-30.656 3.844-.373 7.694-.69 11.86-1.063.33-8.714 1.854-16.53-1.235-24.055-14.014-1.924-25.926.546-35.916 10.023-.661.627-2.166.364-3.239.509l-6.439-9.526c-7.194.163-13.833-1.782-21.032 2.414v23.674m2245.118-68.771c-.94-3.862-1.092-8.165-2.964-11.504-5.633-10.045-19.102-13.876-29.691-9.066-10.715 4.866-15.83 17.563-11.497 28.543 4.32 10.952 16.55 16.94 27.837 13.4 9.02-2.83 14.828-8.663 16.315-21.373z"/>
    <path fill="#C2210C"
          d="M4710.194 2601.886c9.506 52.132 18.52 102.604 27.677 153.05 12.606 69.44 25.322 138.859 37.988 208.287 8.723 47.817 16.517 95.828 26.5 143.38 6.077 28.94-4.305 51.79-40.29 57.59-63.72 10.274-127.073 22.831-190.596 34.349-62.215 11.28-124.46 22.4-186.673 33.693-54.356 9.867-108.68 19.91-163.029 29.816-55 10.025-110.016 19.969-165.021 29.966-62.213 11.306-124.427 22.607-186.632 33.957-54.345 9.916-108.668 19.952-163.018 29.835-55.005 10.001-110.04 19.838-165.048 29.825-55.663 10.107-111.302 20.347-166.963 30.46-61.554 11.184-123.136 22.21-184.68 33.454-45.833 8.374-91.621 16.997-137.44 25.455a66.842 66.842 0 0 1-9.926 1.094c-19.814.645-34.897-10.266-39.272-29.86-4.496-20.133-7.826-40.53-11.532-60.836-14.105-77.288-28.158-154.584-42.225-231.878-12.637-69.434-25.267-138.868-37.9-208.302l-17.693-97.235c-5.07-2.572-10.275-5.394-15.626-7.901-121.699-57.024-243.414-114.012-365.12-171.022-4.81-2.254-9.904-4.141-14.253-7.101-12.415-8.45-14.659-20.917-5.506-32.71 5.694-7.338 12.46-13.87 18.97-20.545 32.107-32.91 64.29-65.745 96.442-98.611a715841.949 715841.949 0 0 0 183.12-187.23c1.374-1.406 2.476-3.08 4.818-6.032-1.956-11.967-3.893-25.06-6.254-38.076-19.843-109.405-39.752-218.799-59.665-328.192-13.592-74.674-27.22-149.341-40.846-224.01-.239-1.308-.728-2.572-.951-3.882-4.157-24.35 7.077-42.05 31.106-47.43 18.825-4.214 37.881-7.413 56.867-10.883a154854.638 154854.638 0 0 1 214.112-38.999c62.217-11.281 124.469-22.372 186.678-33.697 69.41-12.635 138.775-25.513 208.185-38.148 62.21-11.324 124.468-22.387 186.68-33.7 62.205-11.314 124.37-22.845 186.57-34.188 54.344-9.91 108.717-19.656 163.066-29.535 62.864-11.428 125.713-22.942 188.575-34.382 62.208-11.322 124.428-22.571 186.634-33.902 47.797-8.706 95.615-17.308 143.352-26.334 17.53-3.315 31.995 1.113 42.063 15.752 3.984 5.793 5.973 13.327 7.504 20.365 3.252 14.954 5.59 30.107 8.336 45.173 19.935 109.386 39.944 218.759 59.8 328.16 19.261 106.126 38.26 212.3 57.575 318.417 19.316 106.112 38.945 212.168 58.316 318.27 11.717 64.179 23.205 128.4 35.225 194.273m-1304.11-356.7c-.76-.71-1.57-.775-4.437-3.237l-66.924-351.714c-2.761-1.158-3.935-2.034-5.15-2.095a307.996 307.996 0 0 0-15.97-.39c-51.313.112-102.627.26-153.94.434-.618.002-1.28.4-1.84.744-.513.316-.918.81-2.366 2.14l-68.414 358.691c-21.694-120.022-38.236-240.408-56.433-360.094-20.296-2.857-116.196-2.567-130.795.237.138 2.607-.013 5.306.46 7.891a981978.733 981978.733 0 0 0 89.987 491.099c.108.587.74 1.094 1.17 1.6.418.492.892.935 1.305 1.362 21.205 2.33 158.74 1.83 174.823-.864 7.719-39.902 15.583-80.307 23.34-120.734 7.907-41.2 15.73-82.416 23.55-123.632 7.584-39.974 14.672-80.05 24.48-119.854 8.57 23.346 11.145 47.758 16.238 71.572 5.287 24.725 9.164 49.75 13.897 74.597 4.608 24.19 9.656 48.298 14.26 72.49 4.73 24.848 8.524 49.89 13.895 74.595 5.198 23.91 7.586 48.46 14.734 71.546 18.777 2.3 154.324 2.166 172.517-.298 30.561-166.729 61.109-334.1 91.588-501.52-16.156-2.516-94.812-2.817-115.637-.514-1.068 4.73-2.556 9.748-3.306 14.874-8.392 57.326-16.619 114.676-24.993 172.004-8.275 56.657-16.668 113.297-26.039 169.07M4033.164 2094c.116 97.948.226 195.895.427 293.843.003 1.152 1.173 2.303 2.73 5.172 22.875.372 46.743.144 70.602.182 23.322.037 46.644.008 69.966.008H4388.17l71.648-71.743v-128.414c-18.454-20.525-39.338-38.144-57.407-59.249 19.114-19.69 39.204-37.15 56.114-56.904v-117.239l-70.764-71.4c-1.007-.08-3.645-.479-6.284-.48a399054.56 399054.56 0 0 0-337.835.027c-3.088.002-6.175.804-10.479 1.402V2094m-920.834 508c.117 121.905.232 243.81.38 365.716.001.58.404 1.208.745 1.73.36.551.873 1.002 1.932 2.175h346.43l77.143-76.064v-352.3l-77.78-76.39h-185.254c-49.297 0-98.594-.053-147.89.084-5.035.014-10.743-1.74-15.706 4.406V2602m745.67 59.219c-36.633-.188-73.266-.372-109.898-.59-.604-.003-1.288-.276-1.786-.63-.525-.373-.871-.996-1.296-1.51-2.63-25.812-2-70.885 1.51-86.189h71.255c23.32 0 46.644.248 69.96-.069 23.743-.323 47.564 1.388 71.07-1.002 2.32-21.896 2.018-86.376-.295-101.99-.585-.664-.972-1.521-1.446-1.572-3.301-.357-6.621-.76-9.935-.757-112.586.14-225.172.323-337.758.522a4.145 4.145 0 0 0-1.918.51c-.543.3-.936.87-2.618 2.524-.148 5.267-.486 11.8-.49 18.331-.04 63.298-.025 126.595-.025 189.893 0 91.282-.046 182.564.101 273.845.01 6.363-2.234 13.304 2.67 19.066 2.186.232 4.167.625 6.149.626 112.603.038 225.206.056 337.809-.017 3.122-.002 6.244-1.028 9.134-1.535 2.283-31.434 1.542-87.388-1.49-103.228-6.22-.187-12.742-.55-19.263-.554-59.3-.045-118.6.034-177.899-.126-5.678-.015-12.021 2.051-17.87-4.038 0-15.06-.245-31.017.07-46.962.31-15.691-1.538-31.53 1.546-48.036h20.894c52.637 0 105.274.046 157.91-.075 5.073-.012 10.763 1.738 14.862-3.195 2.098-36.625 1.352-86.492-1.51-101.221-1.17-.541-2.337-1.544-3.512-1.555-23.977-.223-47.955-.333-75.931-.466m63.922-668.927c11.329-.003 22.66.145 33.984-.096 3.714-.079 7.406-1.166 10.816-1.743 1.818-27.931 1.325-84.637-.778-100.555-1.118-.584-2.236-1.678-3.356-1.68-114.61-.186-229.22-.296-343.83-.336-1.832 0-3.664.922-6.66 1.726-.142 6.594-.403 13.107-.407 19.62-.032 59.31-.019 118.62-.019 177.928 0 94.629-.062 189.257.127 283.885.014 7.042-2.284 14.617 2.55 21.538 4.013.204 7.968.584 11.922.58 112.614-.1 225.228-.24 337.841-.392.632-.001 1.333-.15 1.876-.454.56-.315.967-.903 1.426-1.357 2.281-16.55 2.457-82.327.11-102.451-6.241-.247-12.72-.719-19.2-.725-59.976-.057-119.952-.006-179.927-.083-5.123-.007-10.244-.708-15.123-1.068-2.355-20.202-2.13-80.436.4-97.562 6.207-.25 12.7-.733 19.192-.74 52.645-.062 105.29.023 157.936-.13 5.021-.014 10.706 1.892 16.022-3.99v-32.714c0-11.329.34-22.67-.097-33.983-.428-11.082 2.04-22.433-2.433-34.633h-19.938c-51.313 0-102.626.058-153.938-.08-5.804-.015-12.008 1.636-17.285-2.312-2.813-23.195-2.097-73.788 1.538-88.193h167.251m150.46 781.339c7.688 33.058 15.395 66.113 23.06 99.177 7.619 32.862 14.143 65.994 22.926 98.071 22.082 2.264 194.015 1.871 209.692-.476l115.588-501.512c-11.714-3.478-22.4-1.69-32.918-1.963-11.32-.293-22.652-.066-33.979-.066-10.66 0-21.328-.236-31.98.065-11.136.314-22.437-1.419-34.61 1.64l-79.19 389.063c-9.313-20.395-11.947-42.102-16.573-63.296-4.826-22.107-9.322-44.287-13.828-66.462-4.375-21.523-8.552-43.086-12.868-64.621-4.313-21.522-8.633-43.044-13.055-64.544-4.556-22.158-9.328-44.272-13.842-66.439-4.355-21.382-7.617-43.01-13.513-63.59-20.347-2.707-127.448-2.41-142.31.226-.325 1.224-1.153 2.562-.905 3.656 22.521 99.267 45.125 198.515 68.305 301.07z"/>
    <path fill="#342725"
          d="M1452.358 3232.423c-56.623 39.334-118.42 63.263-183.4 79.663-49.16 12.408-99.113 19.926-149.615 24.7-61.792 5.84-123.692 7.57-185.625 6.092-66.568-1.59-133.119-5.043-199.033-15.316-55.356-8.627-109.926-20.596-161.255-44.078-30.52-13.962-58.452-31.657-81.54-56.511-29.366-31.614-43.926-69.428-47.505-111.821-5.993-70.981 20.005-128.913 72.549-175.826 30.658-27.374 65.948-47.143 103.531-63.155 4.763-2.029 9.568-3.96 14.09-5.827 0-6.004-4.91-6.604-7.784-9.002-11.734-9.792-24.647-18.415-35.208-29.325-27.94-28.863-42.492-63.967-44.714-104.138-3.947-71.318 21.611-130.314 74.7-177.514 11.915-10.594 24.937-19.958 37.616-29.672 5.17-3.96 10.781-7.344 15.912-10.802-1.2-6.612-6.54-7.415-10.248-9.7-32.644-20.118-61.356-44.583-84.741-75.145-29.368-38.378-47.291-81.813-55.106-129.147-9.789-59.284-7.571-118.158 10.708-175.872 16.466-51.99 45.216-96.026 85.558-132.715 45.755-41.614 99.656-68.401 157.989-86.846 50.979-16.12 103.414-24.869 156.7-29.227 47.24-3.864 94.471-4.74 141.712-1.478 43.854 3.026 87.487 8.041 130.57 17.3 8.344 1.793 17.24 1.375 25.882 1.377 294.63.062 589.258.052 883.888.052 4.666 0 9.332.043 13.998-.007 22.784-.246 39.424 10.33 51.133 29.293 8.12 13.15 13.647 27.527 16.806 42.533 4.244 20.159 7.323 40.562 10.892 60.863.458 2.605.856 5.22 1.606 9.822 3.552-3.44 6.405-5.608 8.522-8.346 19.593-25.335 40.31-49.587 64.185-71.108 53.171-47.928 115.758-71.808 186.89-75.197 28.332-1.35 55.76 1.469 83.631 12.474 10.358 57.003 21.194 114.49 31.169 172.126 9.956 57.526 21.032 114.878 30.76 174.868-16.026-3.564-29.464-6.18-42.693-9.602-12.36-3.198-24.745-4.846-37.524-4.54-39.945.96-79.953.577-119.833 2.69-63.916 3.387-127.317 11.322-189.454 27.455-2.48.644-4.9 1.522-7.735 2.413-.553 3.047-1.416 5.584-1.417 8.121-.064 151.257-.057 302.514-.057 454.67 4.738.798 8.454 1.948 12.177 1.97 26.663.158 53.326.046 79.99.12 5.88.017 11.758.437 18.427.702.518 4.776 1.235 8.613 1.309 12.462 1.93 99.807.976 219.13-1.97 238.394-2.203.368-4.693 1.147-7.183 1.148-217.18.056-434.359.052-650.027.052-2.002-1.818-2.612-2.192-2.956-2.735a3.617 3.617 0 0 1-.536-1.834c-.154-79.315-.29-158.63-.388-237.944-.003-2.573.399-5.146.72-9.009 4.101-.444 7.84-1.138 11.588-1.2 9.996-.168 19.997.03 29.995-.085 32.332-.374 59.827-27.175 60.782-59.19.08-2.664.013-5.332.013-7.999 0-141.982-.369-283.965.363-425.943.122-23.673-8.77-40.957-25.854-55.568-9.453-8.085-20.075-12.694-32.732-12.667-49.993.106-99.987.098-149.98.007-12.563-.023-23.285 4.251-33.035 12.025-10.02 7.991-15.402 17.159-14.162 30.82 1.441 15.877 1.372 31.975.81 47.937-2.265 64.22-20.41 123.212-59.48 174.926-26.495 35.07-59.693 62.51-97.725 84.264-43.72 25.008-90.756 41.269-139.673 52.336-58.024 13.128-116.882 18.86-176.328 20.04-43.35.861-86.596-.235-129.708-4.43-23.166-2.253-46.167-6.226-69.23-9.502-5.903-.838-11.762-1.977-18.938-3.198-2.389 20.146-1.608 38.895 6.896 56.786 4.852 10.208 13.393 16.38 23.696 20.237 10.125 3.791 20.702 4.631 31.454 4.59 32.662-.122 65.325-.04 97.987-.04 94.655 0 189.312-.406 283.963.173 46.652.285 93.116 3.992 138.689 15.064 22.04 5.354 43.494 12.403 63.989 22.18 55.882 26.66 93.28 69.509 112.59 128.33 7.52 22.908 12.432 46.428 14.312 70.308 3.56 45.23 3.198 90.345-5.6 135.249-17.328 88.446-62.288 159.012-134.735 212.305a378.256 378.256 0 0 1-6.02 4.324m-585.161-136.811c20.048 5.164 40.359 8.564 61.104 8.892 28.622.453 57.253 1.426 85.866 1.079 33.964-.412 67.83-3.085 101.197-9.853 20.234-4.104 40.371-9.093 58.33-19.72 8.485-5.021 16.806-10.96 23.655-17.991 22.16-22.747 18.66-72.434-23.497-82.625-15.695-3.794-31.543-5.565-47.41-5.623-101.248-.373-202.497-.214-303.746-.102-4.412.005-8.822 1.277-13.647 2.022-2.137 19.665-2.244 38.287.12 56.8 4.167 32.622 20.632 55.63 53.154 65.397.633.19 1.218.536 4.874 1.724m66.187-779.776c2.302 4.794 4.359 9.724 6.942 14.361 25.788 46.292 91.856 61.507 135.548 31.24 2.723-1.887 5.219-4.122 7.707-6.322 18.28-16.166 27.194-37.438 32.37-60.54 8.238-36.768 8.222-73.89 3.109-111.013-2.179-15.814-6.449-31.18-13.53-45.722-11.546-23.705-29.962-38.854-55.56-44.473-18.37-4.032-37.23-3.953-55.545.016-24.653 5.342-43.754 19.197-55.058 42.187-4.66 9.475-9.007 19.415-11.414 29.634-11.667 49.532-11.05 98.873 5.431 150.632z"/>
    <path fill="#3A2C2A"
          d="M3887.22 3680.425c15.955.415 29.67 2.684 43.006 7.285 28.179 9.723 51.222 33.71 47.457 78.49-2.54 30.225-18.312 50.547-46.01 62.09-1.826.761-3.598 1.662-5.352 2.58-.566.297-.997.852-1.593 1.381-1.487 5.471 2.977 8.364 5.457 11.85 23.544 33.097 47.291 66.05 70.873 99.119 2.932 4.111 5.243 8.665 8.676 14.409-6.75 2.135-11.974 1.367-17.029 1.596-5.314.24-10.656.76-15.945.452-8.252-.481-15.656-3.78-21.368-9.665-5.063-5.216-9.589-11.033-13.815-16.967-19.31-27.113-38.628-54.224-57.502-81.64-5.785-8.403-12.169-13.308-22.996-12.376-11.779 1.015-23.74-.494-36.458 1.089-3.76 14.34-.03 28.462-2.646 42.258-6.481 3.809-13.255 1.851-19.674 2.141-6.56.297-13.142.066-18.584.066-1.522-1.848-2-2.328-2.354-2.886-.338-.533-.78-1.147-.78-1.725-.03-64.61-.029-129.219.047-193.828.002-1.17.937-2.34 1.269-3.116.714-.79 1.083-1.418 1.632-1.742.535-.317 1.254-.448 1.894-.45 33.3-.152 66.6-.28 101.795-.411m34.958 107.462c2.74-3.713 6.25-7.081 8.094-11.196 10.104-22.553.21-45.251-23.19-52.694-6.825-2.172-14.252-3.136-21.442-3.343-16.587-.476-33.199-.248-49.798-.072-3.757.04-7.504 1.034-12.182 1.726v26.635c0 7.969-.233 15.946.064 23.903.31 8.352-1.634 17.006 2.27 26.25 21.021 0 41.521-.435 61.992.167 11.856.348 22.258-2.457 34.192-11.376z"/>
    <path fill="#3C2E2C"
          d="M3415.897 3762.926c25.986.127 49.963.246 73.938.43.523.005 1.04.752 3.068 2.316.522 11.143 1.303 23.45-.869 36.678-33.513 2.452-66.596-.722-100.255 1.79v39.277c23.673 1.953 46.844.703 69.964.944 22.525.235 45.058-.042 68.747.138 2.255 13.02 1.16 24.77.805 37.29-2.588.743-5.006 2.04-7.427 2.044-55.291.114-110.583.098-165.874.032-1.89-.002-3.78-.767-6.109-1.271-.412-2.671-1.161-5.256-1.16-7.84a81373.7 81373.7 0 0 1 .351-187.837c.004-1.168 1.051-2.333 1.613-3.499 16.236-2.683 160.287-2.704 178.119.18.308 5.497.843 11.284.899 17.074.056 5.823-.364 11.65-.622 18.758-16.34 1.073-31.54.403-46.697.522-15.32.12-30.643-.031-45.965.043-15.177.072-30.377-.348-46.845.353-.9 14.321-1.22 27.296.366 41.74 7.755.296 14.85.567 23.953.838z"/>
    <path fill="#3A2C2A"
          d="M3113.86 3746.95h14.6c.33 7.116.707 12.913.84 18.716.134 5.9.03 11.804.03 18.883-4.964.507-8.727 1.213-12.494 1.226-29.294.094-58.59.006-87.884.092-6.477.019-12.953.503-20.144.803-1.84 11.593-.861 22.195-1.026 32.716-.167 10.65.062 21.306-.065 31.957-.125 10.484.592 21.032-.678 32.625-14.244.886-27.285 1.082-39.847-.051-.936-1.12-1.411-1.6-1.775-2.152-.346-.528-.82-1.133-.822-1.704-.138-73.233-.239-146.467-.34-219.7-.007-5.286 0-10.573 0-16.543 3.923-.887 7.017-2.19 10.114-2.197 53.929-.117 107.858-.087 161.787-.017 1.907.003 3.813.746 6.238 1.252 3.607 6.125 1.633 12.888 1.95 19.297.291 5.895.062 11.816.062 17.978-15.862 3.195-30.503 1.293-45.03 1.621-15.305.346-30.625-.024-45.937.107-14.44.123-28.944-.687-42.957.674-2.897 19.069-2.762 48.033.02 62.752 1.24.48 2.48 1.37 3.724 1.376 32.622.152 65.244.213 99.634.289z"/>
    <path fill="#3B2D2B"
          d="M3670.725 3887.812c-17.109.166-32.31.304-47.46-3.133-36.896-8.37-61.423-32.555-67.664-69.647-2.521-14.984-2.975-30.402-3.338-45.647-.633-26.6-.5-53.219-.583-79.83-.008-2.493.732-4.988 1.308-8.647 13.738-.978 26.79-.368 40.955-.297.682 5.329 1.71 9.728 1.733 14.132.15 27.947-.086 55.898.182 83.845.076 7.928.436 16.085 2.33 23.724 8.579 34.606 34.9 53.175 74.448 44.283 26.899-6.049 42.045-25.97 42.825-55.17.747-27.926.575-55.878.777-83.818.057-7.964.009-15.928.009-24.622 13.981-4.886 27.58-1.945 42.262-2.072.478 4.76 1.177 8.548 1.188 12.337.092 30.61.02 61.221.07 91.832.026 16.161-2.835 31.845-8.764 46.788-10.785 27.183-30.69 44.515-58.877 52.138-6.392 1.73-13.049 2.478-21.4 3.804z"/>
    <path fill="#3A2C2A"
          d="M2806.905 3702.303c3.69-7.925 6.776-14.448 9.937-21.13h38.03c1.774 2.486 4.64 5.34 6.153 8.788 27.268 62.11 54.383 124.287 81.459 186.48.752 1.727.705 3.802 1.168 6.518-7.108 3.02-14.402 1.209-21.417 1.554-6.597.326-13.223.07-19.377.07-8.732-9.448-10.925-20.902-15.656-30.997-3.519-7.508-8.574-11.662-16.783-11.65a9711.58 9711.58 0 0 0-73.91.37c-1.888.016-3.764 1.173-7.09 2.28l-17.735 39.671c-7.747.114-14.97.258-22.194.315-6.58.053-13.16.011-21.945.011 26.255-61.847 52.819-121.228 79.36-182.28m55.112 97.61c-.402-2.528-.327-5.255-1.283-7.554-6.627-15.948-13.452-31.814-20.26-47.686-.98-2.284-1.344-5.337-6.386-4.887-2.7 5.76-5.827 12.123-8.686 18.605-3.217 7.29-6.42 14.603-9.206 22.065-2.392 6.407-6.988 12.35-5.996 20.807 16.919 0 32.813 0 51.817-1.35z"/>
    <path fill="#3B2D2B"
          d="M2536.247 3859.509v-214.46c14.153-3.931 27.749-1.786 40.296-1.487 1.417 1.36 1.975 1.715 2.27 2.224.323.56.57 1.26.57 1.898.024 64.526.023 129.052.023 194.604 4.365.788 8.05 2.015 11.739 2.03 35.272.15 70.545.065 105.818.128 5.85.01 11.7.41 18.087.65.553 3.576 1.237 6.072 1.273 8.579.134 9.248.054 18.499.054 26.867-1.538 1.298-2.016 1.772-2.564 2.143-.525.356-1.122.861-1.688.863-55.233.16-110.466.29-165.698.365-2.57.003-5.138-.5-8.173-.816-3.628-7.161-1.254-14.594-2.007-23.588z"/>
    <path fill="#3C2F2D"
          d="M3291.815 3883.989h-124.358c-.927-3.207-2.246-5.648-2.25-8.091-.121-61.99-.118-123.982-.06-185.973.002-2.53.75-5.06 1.325-8.683 13.589-1.471 26.575-.889 40.841-.478 2.322 27.519.79 54.002 1.064 80.42.277 26.622.061 53.25.061 81.005 4.098.787 7.765 2.082 11.44 2.103 29.328.17 58.658.1 87.987.102h20.461c4.553 12.874 2.248 25.143 2.12 38.505-12.974 2.02-24.874.683-38.631 1.09z"/>
    <path fill="#3F312F"
          d="M1527.375 3796.876c1.043 3.976 1.705 6.273 2.398 8.676 2.186-.864 4.056-1.046 4.311-1.785 7.565-21.94 14.969-43.934 22.613-66.556h17.07c9.96 21.632 13.564 46.106 25.286 70.323 10.762-23.92 11.416-48.335 20.627-70.326h26.303c-.202 2.747-.03 4.707-.522 6.483-9.024 32.64-18.127 65.259-27.326 98.285-11.34 4.09-22.574.743-33.778 2.415-8.723-13.859-10.553-29.554-18.417-43.594-9.14 12.804-10.226 28.721-18.319 42.429-10.965 1.34-22.038 1.135-34.231.006l-29.557-104.72c9.556-3.567 18.434-1.977 28.42-1.283 4.94 19.423 9.84 38.696 15.122 59.647z"/>
    <path fill="#3C2F2D"
          d="M1266.945 3868.012c-.165 9.735-.33 17.622-.51 26.238-9.147 2.783-17.486 1.94-25.77.939-2.612-15.373-2.863-139.518-.302-158.054 9.166-.062 19.309-4.939 26.52 7.253 8.533-4.586 17.027-9.505 27.434-9.582 21.936-.16 38.534 10.974 45.67 31.609 6.155 17.792 4.788 35.543-1.544 52.783-6.74 18.356-22.856 28.398-42.299 26.222-8.985-1.005-17.696-4.469-28.068-7.226-1.885 3.923-.927 9.098-1.096 14.006-.16 4.65-.035 9.309-.035 15.812m31.95-105.337c-8.963-4.402-16.783-1.23-24.06 3.98-7.28 5.211-8.53 12.92-8.021 21.249.242 3.961-.624 8.133.333 11.871 1.103 4.308 2.818 9.023 5.746 12.197 10.815 11.722 28.112 9.941 37.695-3.394 5.324-7.407 6.449-15.791 5.412-24.618-1.093-9.295-6.015-15.897-17.104-21.285z"/>
    <path fill="#3A2C2A"
          d="M2083.886 3843.947c-12.395-.71-12.395-.71-18.53-8.018-3.88 1.904-7.857 4.16-12.056 5.868-29.412 11.968-55.498-2.082-61.694-33.067-2.5-12.506-3.3-24.85-.036-37.482 7.439-28.788 33.238-43.02 61.569-33.416 3.625 1.23 7.137 2.79 11.701 4.59 4.096-18.031.022-35.346 2.741-52.922 7.599-3.046 15.353-1.27 23.937-1.506.674 2.98 1.677 5.36 1.683 7.744.109 45.864.105 91.727.104 137.591 0 1.988-.027 4.003-.338 5.958-.678 4.276-4.015 4.567-9.08 4.66m-27.644-78.25c-6.303-4.06-12.71-6.54-20.497-3.918-24.348 8.2-23.522 37.684-10.29 50.293 6.584 6.272 14.293 9.849 23.429 6.709 9.38-3.223 16-9.79 17.435-19.772 1.617-11.257 1.637-22.575-10.077-33.313z"/>
    <path fill="#3C2F2D"
          d="M2273.8 3820.8c-16.646 25.5-36.168 31.201-61.85 19.2-2.362-1.104-4.624-2.424-7.746-4.074l-6.504 7.637h-20.342c-.6-3.167-1.688-6.256-1.695-9.349-.116-45.158-.104-90.316-.054-135.474.003-3.16.547-6.322.902-10.167h24.962c3.425 18.016-.252 35.934 2.57 54.852 3.768-1.835 6.526-3.346 9.41-4.557 26.483-11.124 53.421.856 62.61 27.789 3.944 11.562 4.792 23.405 2.705 35.377-1.022 5.863-2.81 11.594-4.968 18.767m-21.843-37.381c-.797-6.194-3.333-11.608-8.23-15.472-7.608-6.001-15.795-9.96-25.721-5.232-9.116 4.342-14.944 10.918-15.101 21.495-.06 3.994.178 8.002-.055 11.984-.613 10.46 8.305 20.25 18.732 23.01 8.847 2.342 19.798-2.673 25.663-11.569 4.2-6.372 5.53-13.463 4.712-24.216z"/>
    <path fill="#3F312F"
          d="M2323.85 3894.201c-10.527 3.45-19.607 2.46-29.743 1.644v-21.882c3.566-.524 7.308-1.692 10.974-1.486 8.523.48 13.778-3.587 17.42-10.755 5.323-10.474 7.005-20.396 2.291-32.336-10.002-25.34-18.206-51.39-27.062-77.18-1.498-4.364-2.573-8.874-4.103-14.225 9.564-2.715 18.43-1.799 27.792-.688 8.018 20.555 13.175 41.572 22.275 65.205 11.883-23.156 16.966-44.438 26.37-64.544 8.717-3.12 17.96-1.104 28.816-1.426-1.12 4.504-1.568 8.127-2.901 11.387-15.854 38.783-31.749 77.55-47.846 116.234-4.897 11.766-10.865 22.931-24.283 30.052z"/>
    <path fill="#3B2D2B"
          d="M1939.47 3801.841c-14.418.454-27.022-1.01-41.167 1.251 1.738 4.276 2.239 8.401 4.56 10.634 5.47 5.264 12.66 6.918 20.242 6.684 11.8-.365 23.603-.681 36.346-1.045v19.44c-18.176 8.441-46.032 9.277-61.928 2.363-11.649-5.067-19.52-13.798-24.195-25.181-7.124-17.345-6.879-35.091-.131-52.488 6.6-17.017 19.286-26.572 37.598-28.128a80.798 80.798 0 0 1 13.9.045c22.497 1.992 36.397 14.22 41.567 36.355 2.138 9.155 1.939 18.355.7 27.869-8.463 3.976-17.183 1.525-27.493 2.201m-40.845-24.59c12.409.163 24.818.377 37.227.386.967.001 1.936-1.434 3.567-2.728-2.491-10.448-10.527-13.86-20.046-14.585-10.792-.822-19.502 2.482-20.748 16.928zM1744.97 3746.965c14.738 16.123 16.52 33.96 13.666 53.401-11.656 2.767-22.979 1.025-34.176 1.44-11.07.413-22.24-.605-35.378 1.147 2.964 5.26 4.121 9.181 6.71 11.511 5.103 4.591 11.672 6.123 18.558 5.923 11.868-.343 23.735-.691 36.657-1.068 2.447 6.254 1.352 12.67.816 20.237-4.225 1.452-8.344 3.674-12.668 4.2-12.506 1.525-25 3.13-37.718.95-17.271-2.963-29.213-12.614-35.867-28.296-7.616-17.95-7.189-36.332.304-54.357 6.75-16.237 19.196-24.963 36.61-26.703 15.073-1.506 29.146.952 42.487 11.615m-41.375 13.567c-11.449 6.086-11.449 6.086-13.895 16.8 14.08 1.136 27.892 2.779 42.091-1.367-7.504-13.69-7.504-13.69-28.196-15.433z"/>
    <path fill="#3C2F2D"
          d="M1449.773 3745.936c20.02 20.55 24.972 46.54 14.542 70.348-8.743 19.96-24.929 28.842-45.682 29.38-20.713.534-37.559-7.387-47.5-26.65-6.608-12.803-8.597-26.47-5.857-40.576 6.71-34.544 40.226-52.458 72.887-39.06 3.647 1.497 6.986 3.74 11.61 6.558m-35.015 73.868c20.999-2.46 29.796-12.707 27.871-32.722-.315-3.281-1.149-6.572-2.179-9.715-3.244-9.895-11.945-16.27-22.478-16.745-10.06-.453-20.039 5.556-23.787 14.989-3.822 9.618-3.574 19.579-.225 29.249 2.846 8.218 9.347 12.632 20.798 14.944z"/>
    <path fill="#3F312F"
          d="M1785.014 3760.8v-21.791c7.2-4.196 13.838-2.25 21.032-2.414l6.44 9.526c1.072-.145 2.577.118 3.238-.51 9.99-9.476 21.902-11.946 35.916-10.022 3.089 7.525 1.565 15.341 1.235 24.055-4.166.372-8.016.69-11.86 1.063-20.7 2.01-28.266 10.012-28.501 30.656-.19 16.604-.038 33.211-.038 49.51-11.777 3.438-11.777 3.438-25.399 1.284-.572-1.165-1.632-2.326-1.642-3.496-.21-25.326-.305-50.652-.42-77.86z"/>
    <path fill="#6B5D5B"
          d="M4029.983 3695.394c-1.338 11.228-7.147 17.061-16.166 19.89-11.288 3.54-23.516-2.447-27.837-13.399-4.333-10.98.782-23.677 11.497-28.543 10.59-4.81 24.058-.98 29.691 9.066 1.872 3.339 2.025 7.642 2.815 12.986m-13.901-11.329s.118.092-.833-2.985c-5.061-3.198-10.442-2.476-15.289-.138-2.741 1.322-5.346 4.136-6.686 6.917-3.125 6.488.27 15.407 6.56 19.081 5.651 3.3 14.177 2.032 18.36-2.732 5.331-6.072 4.633-12.554-2.112-20.143z"/>
    <path fill="#FEFDFD"
          d="M3407.114 2246.06c8.341-56.647 16.734-113.287 25.01-169.944 8.373-57.328 16.6-114.678 24.992-172.004.75-5.126 2.238-10.144 3.306-14.874 20.825-2.303 99.48-2.002 115.637.514-30.48 167.42-61.027 334.791-91.588 501.52-18.193 2.464-153.74 2.597-172.517.298-7.148-23.086-9.536-47.636-14.734-71.546-5.371-24.704-9.166-49.747-13.895-74.596-4.604-24.191-9.652-48.298-14.26-72.489-4.733-24.848-8.61-49.872-13.897-74.597-5.093-23.814-7.668-48.226-16.239-71.572-9.807 39.804-16.895 79.88-24.48 119.854-7.82 41.216-15.642 82.432-23.548 123.632-7.758 40.427-15.622 80.832-23.34 120.734-16.083 2.694-153.619 3.194-174.824.864-.413-.427-.887-.87-1.305-1.362-.43-.506-1.062-1.013-1.17-1.6a981978.733 981978.733 0 0 1-89.987-491.099c-.473-2.585-.322-5.284-.46-7.89 14.599-2.805 110.5-3.095 130.795-.238 18.197 119.686 34.74 240.072 56.433 360.094l68.414-358.692c1.448-1.33 1.853-1.823 2.366-2.14.56-.344 1.222-.741 1.84-.743 51.313-.174 102.627-.322 153.94-.434 5.324-.011 10.653.126 15.97.39 1.215.06 2.389.937 5.15 2.095 22.19 116.622 44.558 234.168 67.514 354.067 1.404 4.632 2.218 6.91 4.358 12.9l.519-11.142zM4033.163 2092v-202.795c4.304-.598 7.391-1.4 10.479-1.402 112.611-.064 225.223-.058 337.835-.027 2.639.001 5.277.4 6.284.48l70.764 71.4v117.239c-16.91 19.755-37 37.214-56.114 56.904 18.069 21.105 38.953 38.724 57.407 59.25v128.413l-71.647 71.743h-211.282c-23.322 0-46.644.029-69.966-.008-23.859-.038-47.727.19-70.602-.182-1.557-2.87-2.727-4.02-2.73-5.172-.2-97.948-.311-195.895-.428-295.843m140.008 107.062c.104 30.644.188 61.288.385 91.932.007 1.157 1.088 2.307 1.671 3.458 14.436 2.29 101.981 2.897 127.915.835l16.63-15.847v-78.466c-2.635-2.909-4.872-5.368-7.098-7.838-2.644-2.933-5.278-5.876-7.379-8.216-27.741-2.378-115.746-1.719-131.27 1.061-.265 2.915-.556 6.112-.854 13.08m56.848-215.368c-9.326 0-18.659-.245-27.973.07-9.095.306-18.399-1.432-27.076 1.243-3.303 24.94-2.582 88.864 1.144 102.238h126.365l16.082-15.034v-71.165c-5.822-5.498-12.025-11.359-18.37-17.353h-70.172zM3112.33 2600v-128.643c4.962-6.147 10.67-4.392 15.704-4.406 49.297-.137 98.594-.084 147.891-.085h185.255l77.779 76.391v352.3l-77.144 76.064h-346.429c-1.059-1.173-1.572-1.624-1.932-2.175-.341-.522-.744-1.15-.744-1.73-.149-121.906-.264-243.81-.38-367.716m270.216 262.177c5.539-5.689 11.078-11.377 16.54-16.989V2591.61c-4.766-4.192-10.681-8.639-15.655-13.964-5.881-6.297-12.407-8.756-21.11-8.637-32.588.442-65.187.131-97.78.247-3.817.013-7.63.92-11.346 1.399-.62 2.825-1.401 4.726-1.4 6.626.04 95.782.144 191.564.28 287.346 0 .573.473 1.18.817 1.71.36.554.833 1.035 2.181 2.669 38.208 0 77.355.096 116.499-.197 2.867-.022 5.713-2.86 10.974-6.631zM3859.999 2661.22c25.976.132 49.954.242 73.93.465 1.176.011 2.342 1.014 3.512 1.556 2.863 14.728 3.609 64.595 1.51 101.22-4.098 4.933-9.788 3.183-14.86 3.195-52.637.121-105.274.075-157.911.075h-20.894c-3.084 16.506-1.236 32.345-1.546 48.036-.315 15.945-.07 31.902-.07 46.962 5.849 6.09 12.192 4.023 17.87 4.038 59.3.16 118.6.081 177.9.126 6.52.004 13.041.367 19.261.554 3.033 15.84 3.774 71.794 1.491 103.228-2.89.507-6.012 1.533-9.134 1.535-112.603.073-225.206.055-337.809.017-1.982 0-3.963-.394-6.15-.626-4.903-5.762-2.659-12.703-2.669-19.066-.147-91.281-.1-182.563-.1-273.845 0-63.298-.017-126.595.024-189.893.004-6.532.342-13.064.49-18.33 1.682-1.655 2.075-2.225 2.618-2.525a4.145 4.145 0 0 1 1.918-.51c112.586-.199 225.172-.382 337.758-.522 3.314-.004 6.634.4 9.935.757.474.05.86.908 1.446 1.571 2.313 15.615 2.615 80.095.294 101.99-23.505 2.39-47.326.68-71.07 1.003-23.315.317-46.639.069-69.959.069h-71.255c-3.51 15.304-4.14 60.377-1.51 86.19.425.513.771 1.136 1.296 1.509.498.354 1.182.627 1.786.63 36.632.218 73.265.402 111.898.59z"/>
    <path fill="#FFFEFE"
          d="M3919.936 1992.292H3754.67c-3.635 14.405-4.35 64.998-1.538 88.193 5.277 3.948 11.481 2.297 17.285 2.313 51.312.137 102.625.08 153.938.08h19.938c4.472 12.199 2.005 23.55 2.433 34.632.437 11.312.097 22.654.097 33.983v32.714c-5.316 5.882-11.001 3.976-16.022 3.99-52.645.153-105.29.068-157.936.13-6.492.007-12.985.49-19.192.74-2.53 17.126-2.755 77.36-.4 97.562 4.88.36 10 1.06 15.123 1.068 59.975.077 119.95.026 179.926.083 6.48.006 12.96.478 19.201.725 2.347 20.124 2.171 85.902-.11 102.451-.459.454-.865 1.042-1.426 1.356-.543.305-1.244.454-1.876.455-112.613.152-225.227.291-337.84.392-3.955.004-7.91-.376-11.922-.58-4.835-6.921-2.537-14.496-2.551-21.538-.189-94.628-.127-189.256-.127-283.885 0-59.309-.013-118.618.02-177.927.003-6.514.264-13.027.407-19.62 2.995-.805 4.827-1.728 6.659-1.727 114.61.04 229.22.15 343.83.336 1.12.002 2.238 1.096 3.355 1.682 2.104 15.916 2.597 72.622.779 100.553-3.41.577-7.102 1.664-10.816 1.743-11.323.24-22.655.093-35.97.096z"/>
    <path fill="#FEFDFD"
          d="M4072.09 2771.978c-22.889-100.903-45.493-200.151-68.014-299.418-.248-1.094.58-2.432.907-3.656 14.86-2.637 121.96-2.933 142.308-.227 5.896 20.58 9.158 42.209 13.513 63.591 4.514 22.167 9.286 44.28 13.842 66.439 4.422 21.5 8.742 43.022 13.055 64.544 4.316 21.535 8.493 43.098 12.868 64.62 4.506 22.176 9.002 44.356 13.828 66.463 4.626 21.194 7.26 42.901 16.573 63.296l79.19-389.064c12.173-3.058 23.474-1.325 34.61-1.64 10.652-.3 21.32-.064 31.98-.064 11.327 0 22.66-.227 33.979.066 10.518.273 21.204-1.515 32.918 1.963l-115.588 501.512c-15.677 2.347-187.61 2.74-209.692.476-8.783-32.077-15.307-65.21-22.926-98.07-7.665-33.065-15.372-66.12-23.35-100.831z"/>
    <path fill="#6B5D5B"
          d="M3406.6 2245.623c.402 2.834.29 5.23-.005 11.579-2.14-5.99-2.954-8.268-3.354-11.377 1.272-1.414 2.082-1.35 3.358-.202z"/>
    <path fill="#FBFBFB"
          d="M865.673 3095.155c-2.132-.73-2.717-1.077-3.35-1.267-32.522-9.768-48.987-32.775-53.153-65.397-2.365-18.513-2.258-37.135-.12-56.8 4.824-.745 9.234-2.017 13.646-2.022 101.249-.112 202.498-.27 303.746.102 15.867.058 31.715 1.829 47.41 5.623 42.156 10.191 45.658 59.878 23.497 82.625-6.85 7.03-15.17 12.97-23.655 17.991-17.959 10.627-38.096 15.616-58.33 19.72-33.368 6.768-67.233 9.441-101.197 9.853-28.613.347-57.244-.626-85.866-1.079-20.745-.328-41.056-3.728-62.628-9.35z"/>
    <path fill="#FDFDFD"
          d="M932.846 2314.366c-15.943-50.289-16.56-99.63-4.893-149.162 2.407-10.219 6.754-20.159 11.414-29.634 11.304-22.99 30.405-36.845 55.058-42.187 18.316-3.969 37.175-4.048 55.544-.016 25.6 5.62 44.015 20.768 55.56 44.473 7.082 14.543 11.352 29.908 13.53 45.722 5.114 37.122 5.13 74.245-3.108 111.013-5.176 23.102-14.09 44.374-32.37 60.54-2.488 2.2-4.984 4.435-7.707 6.321-43.692 30.268-109.76 15.053-135.548-31.239-2.583-4.637-4.64-9.567-7.48-15.831z"/>
    <path fill="#F8F8F8"
          d="M3920.927 3788.87c-10.683 7.936-21.085 10.741-32.941 10.393-20.47-.602-40.97-.167-61.992-.167-3.904-9.244-1.96-17.898-2.27-26.25-.297-7.957-.064-15.934-.064-23.903v-26.635c4.678-.692 8.425-1.686 12.182-1.726 16.6-.176 33.21-.404 49.798.072 7.19.207 14.617 1.171 21.443 3.343 23.4 7.443 33.293 30.14 23.189 52.694-1.844 4.115-5.353 7.483-9.345 12.178zM2860.462 3800.588c-17.449.675-33.343.675-50.262.675-.992-8.458 3.604-14.4 5.996-20.807 2.786-7.462 5.989-14.774 9.206-22.065 2.86-6.482 5.985-12.846 8.686-18.605 5.042-.45 5.406 2.603 6.386 4.887 6.808 15.872 13.633 31.738 20.26 47.686.956 2.299.881 5.026-.272 8.23zM1300.323 3763.244c9.662 4.82 14.584 11.42 15.677 20.716 1.037 8.827-.088 17.21-5.412 24.618-9.583 13.335-26.88 15.116-37.695 3.394-2.928-3.174-4.643-7.89-5.746-12.197-.957-3.738-.091-7.91-.333-11.871-.509-8.329.741-16.038 8.022-21.25 7.276-5.209 15.096-8.38 25.487-3.41zM2057.406 3766.693c10.551 9.741 10.531 21.06 8.914 32.316-1.435 9.982-8.055 16.549-17.435 19.772-9.136 3.14-16.845-.437-23.428-6.71-13.233-12.608-14.059-42.092 10.289-50.292 7.788-2.623 14.194-.143 21.66 4.914zM2252.1 3785.038c.676 9.135-.654 16.226-4.855 22.598-5.865 8.896-16.816 13.91-25.663 11.569-10.427-2.76-19.345-12.55-18.732-23.01.233-3.982-.005-7.99.055-11.984.157-10.577 5.985-17.153 15.1-21.495 9.927-4.728 18.114-.77 25.721 5.232 4.898 3.864 7.434 9.278 8.374 17.09z"/>
    <path fill="#DAD6D6"
          d="M1897.767 3775.96c2.103-13.154 10.813-16.458 21.605-15.636 9.52.724 17.555 4.137 20.046 14.585-1.631 1.294-2.6 2.73-3.567 2.728-12.41-.009-24.818-.223-38.084-1.678zM1705.156 3760.357c19.132 1.918 19.132 1.918 26.636 15.608-14.2 4.146-28.01 2.503-42.091 1.366 2.446-10.713 2.446-10.713 15.455-16.974z"/>
    <path fill="#F8F8F8"
          d="M1413.167 3819.646c-9.86-2.154-16.361-6.568-19.207-14.786-3.35-9.67-3.597-19.631.225-29.25 3.748-9.432 13.728-15.44 23.787-14.988 10.533.474 19.234 6.85 22.478 16.745 1.03 3.143 1.864 6.434 2.18 9.715 1.924 20.015-6.873 30.261-29.463 32.564z"/>
    <path fill="#DAD6D6"
          d="M4016.011 3683.942c6.816 7.712 7.514 14.194 2.183 20.266-4.183 4.764-12.709 6.033-18.36 2.732-6.29-3.674-9.685-12.593-6.56-19.08 1.34-2.782 3.945-5.596 6.686-6.918 4.847-2.338 10.228-3.06 14.192 1.93-4.875 1.794-8.653 1.794-13.237 1.794l-.614 13.412 12.926.613c0-2.795-.362-5.274.098-7.59.49-2.467 1.758-4.78 2.686-7.16z"/>
    <path fill="#C3230E"
          d="M4173.174 2197.176c.295-5.083.586-8.28.852-11.195 15.523-2.78 103.528-3.44 131.27-1.061 2.1 2.34 4.734 5.283 7.378 8.216 2.226 2.47 4.463 4.93 7.098 7.838v78.466l-16.63 15.847c-25.934 2.062-113.48 1.455-127.916-.834-.582-1.152-1.663-2.302-1.67-3.459-.197-30.644-.281-61.288-.382-93.818z"/>
    <path fill="#C42511"
          d="M4232.014 1983.692h68.176l18.37 17.353v71.165l-16.08 15.034h-126.366c-3.726-13.374-4.447-77.298-1.144-102.238 8.677-2.675 17.98-.937 27.076-1.244 9.314-.314 18.647-.07 29.968-.07z"/>
    <path fill="#C3230E"
          d="M3381.344 2863.298c-4.059 2.65-6.905 5.488-9.772 5.51-39.144.293-78.29.197-116.499.197-1.348-1.634-1.82-2.115-2.18-2.67-.345-.53-.818-1.136-.819-1.71-.135-95.781-.24-191.563-.28-287.345 0-1.9.781-3.8 1.4-6.626 3.716-.48 7.53-1.386 11.346-1.4 32.594-.115 65.193.196 97.781-.246 8.703-.119 15.229 2.34 21.11 8.637 4.974 5.325 10.89 9.772 15.656 13.964v253.58c-5.463 5.61-11.002 11.3-17.743 18.11z"/>
    <path fill="#6B5D5B"
          d="M4016.047 3684.003c-.964 2.319-2.231 4.631-2.722 7.098-.46 2.316-.098 4.795-.098 7.59l-12.926-.613.614-13.412c4.584 0 8.362 0 13.713-.254 1.572-.255 1.454-.347 1.419-.409z"/></svg>
